<svg id="Layer_1" data-name="Layer 1" xmlns="http://www.w3.org/2000/svg" viewBox="0 0 904.99 339.87"><defs><style>.cls-1{fill:#ff725e;}</style></defs><path class="cls-1" d="M638.68,640.85c-.29-18.92-1.45-38,1.85-56.7A92.63,92.63,0,0,1,676,525.35c15.62-12.1,33.53-20.2,52-27.17,24.48-9.25,50.14-14.19,75.32-20.92,14.3-3.83,28.5-7.94,40.7-16.82,6.5-4.74,11.92-10.57,12.95-18.77a55.79,55.79,0,0,0-2.69-26c-5.51-15.42-18.45-19.78-32.73-22.18-16.2-2.73-32.51-2-48.77-1-23,1.33-41.94,9.3-52.57,31.61-4.74,10-13,16.71-24.26,17.84A218.59,218.59,0,0,1,659,442c-7.23-.5-12.33-5.07-16.05-11.31-4-6.69-3.9-13.92-3.6-21.25,1.33-1.18,1.13-2.6.5-4.74l-1.36,4.06h0c-3.8,12-7.47,24-11.42,36Q613.6,485.4,599.89,526c-.53,1.58-.53,3.52-2.36,4.76-.45-1.4-.87-2.65-1.26-3.91q-27.42-88.74-54.81-177.49c-2.15-7-5.45-13.16-11.44-17.68-3.5-2.64-7.8-3.31-11.65-5.08h-52a24.33,24.33,0,0,0-17.85,9.47,34.6,34.6,0,0,0-6,11.41c-2.93,9-5.63,18.09-8.42,27.15Q419,423.72,403.9,472.82c-5.6,18.19-11.17,36.39-17,55C367.4,469.26,348,411.24,328.65,353.19c-.79-2.36-1.31-4.86-2.52-7-5.51-9.94-11.79-18.94-24.51-19.08,0-.16-.07-.33-.09-.49h-59c-4,0-9.55-1.56-11.55.44s-.44,7.54-.44,11.53v5c.3,0,.6,0,.9,0h0c.25.8.45,1.6.73,2.38l53.85,150.56q24.75,69.16,49.52,138.34c5.92,16.49,16.67,24,33.93,24q16,0,32,0c19,0,29.24-7.44,35-25.61q25-78.54,49.88-157.12c1.84-5.76,3.73-11.51,5.59-17.27,1.62.49,1.37,1.48,1.59,2.18q27.46,86.38,54.9,172.77c5.6,17.59,15.9,25,34.4,25q31,0,61.95,0c1.13,0,2.58.75,3.6-.83C642.24,653.91,638.79,648.06,638.68,640.85Z" transform="translate(-230 -326)"/><path class="cls-1" d="M1135,328.58c0-1.74-.32-2.1-2.06-2.06-5.66.15-11.32.06-17,.06h-47a2.55,2.55,0,0,1-.1.91h0c-11.2,2-17.88,10.26-17.88,22.29q0,103.77,0,207.54v5c-19.18-28-37.84-55.68-55.45-84.06-14.63-23.57-53.07-81.63-55.95-82.48a140.25,140.25,0,0,1,4.68,53c-2.77,26.42-14.83,47.6-35.29,64-12.8,10.27-27.65,17.07-42.74,23.38-28,11.7-57.58,17.94-86.7,25.78-14.14,3.8-28.35,7.37-40.8,15.56-5,3.27-9.12,7.21-11.3,12.91-1.23,3.21-.87,4.58,3.21,4.57q101.91-.18,203.82,0c4.16,0,4.94-1.42,4.87-5.14-.21-10.8-.08-21.61-.08-32.42V541.46c2.69,1.56,3.43,3.69,4.56,5.44,19.51,30.15,38.79,60.44,58.49,90.47,9.19,14,21.67,22.19,39.51,21.68,23.29-.67,46.62-.2,69.93-.15,10.34,0,17.3-4.85,21.39-14.18.44-1,.44-2.35,1.79-2.8V345.54C1134.93,339.88,1134.84,334.23,1135,328.58Z" transform="translate(-230 -326)"/><path class="cls-1" d="M739.11,328.58q-35.42,0-70.82-.05c-2.41,0-3,1.3-3.65,3.19-4,11.92-8.12,23.81-12.16,35.72-1.65,4.87-3.19,9.78-4.78,14.67C670.47,350.79,702.67,336.21,739.11,328.58Z" transform="translate(-230 -326)"/><path class="cls-1" d="M897.05,329.94c-.91-1.53-2.5-1.37-4-1.37H849.19c24.12,4.77,47.12,12.14,66.42,28.46C910.9,346.82,902.63,339.32,897.05,329.94Z" transform="translate(-230 -326)"/><path class="cls-1" d="M936.8,651.85c-1.33,0-2.67,0-4,0q-113.91,0-227.81,0c-3.08,0-5.53.06-7.21-3.53-1.77-3.76-5.69-4.88-9.83-4.44a10.15,10.15,0,0,0-8.69,6.56c-2.57,6-.12,11.31,7,15.41h6c1.84-1.37,4.56-1.91,5.4-4.19,1.39-3.81,4.16-3.84,7.48-3.84q113.91.09,227.81,0c1.33,0,2.67,0,4,0,2.3.06,2.1-1.56,2.13-3.07S939,651.75,936.8,651.85Zm-247.54,8.9c-3.54,0-5.88-2-6-5.83a5.87,5.87,0,0,1,6.2-6.17c3.79.2,5.44,2.56,5.88,6C694.83,658.41,692.93,660.79,689.26,660.75Z" transform="translate(-230 -326)"/><path class="cls-1" d="M933.64,633q-102.63-.09-205.25,0c-2.49,0-5,.26-7.3-1.09-7.57-4.49-15.79-5.59-24.45-5-4.81.33-9.66-.06-14.48.1-3.16.11-5.3-.34-7.24-3.56-3.22-5.33-10.55-6-15.35-2.21a10.8,10.8,0,0,0-1.47,15.9c4,4.48,12.12,5.34,15.44.48s7.29-4.65,11.86-4.59,9.33.22,14,0a27,27,0,0,1,14.44,2.91c4.84,2.56,10,3.1,15.42,3.07,33.29-.13,66.58-.06,99.87-.06h47.95c19.3,0,38.62-.11,57.92.08,3.89,0,4.91-1.62,3.88-4.69C938,631.77,935.41,633,933.64,633Zm-267.4,2.86c-3.55-.23-5.71-2.2-6.13-5.9.31-3.58,2.11-5.88,5.81-6.09s5.85,1.95,6.26,5.54A5.93,5.93,0,0,1,666.24,635.85Z" transform="translate(-230 -326)"/><path class="cls-1" d="M690.78,581.12a11.32,11.32,0,0,0-12.45,10.22c-.44,5.88,4.76,12.36,10.57,11.3,5.56-1,7.81,2.08,10.79,5a92,92,0,0,1,7,7.12c2.35,2.89,5.15,3.56,8.74,3.55,36.13-.11,72.26-.07,108.39-.07H925.22c3.83,0,7.66-.06,11.48,0,2.15,0,2.39-1.24,2.37-2.92,0-1.52-.37-2.61-2.18-2.59-1.5,0-3,0-4.49,0-68.11,0-136.21-.25-204.31.25-10.7.08-18.94-2-25.33-10.74-2-2.74-3.88-4.56-2.77-8.59C701.61,587.76,696.84,582,690.78,581.12ZM689.62,598c-3.71.16-5.84-2.08-6.24-5.66a5.94,5.94,0,0,1,6-6.36c3.32,0,5.92,2.61,6,6.6C695.21,595.56,693.28,597.81,689.62,598Z" transform="translate(-230 -326)"/></svg>